#!OML:ASF F:\twosubjects\two\Thursday\Session 1\Rory.ASF
:FULLY-SPECIFIED
:DEGREES
193
root 6.93741 16.9259 1.44483 220.07 1.65233 178.15
lowerback 18.9425 -0.753551 -2.78412
upperback 7.81813 -0.238952 -1.80577
thorax -2.16533 0.373925 -0.302999
lowerneck -15.967 -1.63306 -2.23781
upperneck -10.1169 -3.15531 5.64812
head -0.428576 -2.18249 2.04852
rclavicle 1.19271e-014 1.63003e-014
rhumerus -13.1516 29.5692 -86.4218
rradius 79.5522
rwrist 23.9272
rhand -61.4904 60.2764
rfingers 7.12502
rthumb -33.5695 33.3982
lclavicle 1.19271e-014 1.63003e-014
lhumerus -16.0278 -27.6567 81.8247
lradius 82.4433
lwrist -31.965
lhand -31.2108 85.4462
lfingers 7.12502
lthumb -4.48665 604.621
rfemur -30.8825 -4.82444 2.03137
rtibia 30.2856
rfoot -24.009 -22.5562
rtoes -21.5282
lfemur -29.9544 12.657 -8.78919
ltibia 30.4661
lfoot -19.4756 7.73885
ltoes -23.6151
194
root 6.91978 16.9234 1.39453 219.98 1.54804 178.314
lowerback 18.9033 -0.674998 -2.2875
upperback 7.99517 -0.00834488 -1.84311
thorax -1.96506 0.508977 -0.668374
lowerneck -15.8865 -1.82458 -1.87194
upperneck -10.326 -3.47598 5.57214
head -0.505568 -2.3671 1.94661
rclavicle 1.05356e-014 1.99779e-014
rhumerus -13.6197 28.8767 -86.769
rradius 79.698
rwrist 24.4916
rhand -61.8899 60.621
rfingers 7.12502
rthumb -33.9492 33.8259
lclavicle 1.05356e-014 1.99779e-014
lhumerus -16.2741 -28.1188 82.429
lradius 82.259
lwrist -32.467
lhand -31.1382 85.4132
lfingers 7.12502
lthumb -4.41663 604.653
rfemur -30.696 -4.94593 2.22353
rtibia 30.487
rfoot -23.4749 -22.3987
rtoes -22.4409
lfemur -29.8853 13.1004 -8.77336
ltibia 30.831
lfoot -19.7099 8.31772
ltoes -26.1251
195
root 6.91017 16.932 1.3348 219.563 1.6429 178.116
lowerback 19.1914 -0.726832 -2.45625
upperback 8.13311 -0.0663573 -1.77874
thorax -1.96169 0.491711 -0.494781
lowerneck -15.5913 -1.90282 -2.12968
upperneck -10.4095 -3.52209 5.60464
head -0.571888 -2.37951 2.00546
rclavicle -5.56597e-015 6.16232e-015
rhumerus -14.0481 29.0671 -86.7502
rradius 79.9334
rwrist 24.6523
rhand -62.3717 64.8061
rfingers 7.12502
rthumb -34.4067 38.1136
lclavicle -5.56597e-015 6.16232e-015
lhumerus -16.8255 -28.3161 82.7019
lradius 82.5182
lwrist -32.019
lhand -31.3444 85.7239
lfingers 7.12502
lthumb -4.61574 604.346
rfemur -30.2416 -4.82189 1.85335
rtibia 30.905
rfoot -23.9284 -21.6925
rtoes -21.2331
lfemur -29.3879 13.243 -9.06268
ltibia 31.0529
lfoot -19.3814 7.61562
ltoes -26.5332
196
root 6.90713 16.9508 1.27017 219.248 1.64877 178.265
lowerback 19.4547 -0.763291 -2.49208
upperback 8.18339 -0.106364 -1.61645
thorax -2.04117 0.475035 -0.296332
lowerneck -15.4418 -1.8532 -2.36578
upperneck -10.2696 -3.39632 5.59775
head -0.550499 -2.29386 2.05063
rclavicle 9.14409e-015 1.04362e-014
rhumerus -14.4286 29.4875 -86.7392
rradius 80.1196
rwrist 24.6282
rhand -62.6717 64.9762
rfingers 7.12502
rthumb -34.6914 38.3486
lclavicle 9.14409e-015 1.04362e-014
lhumerus -17.4696 -28.4084 83.0825
lradius 82.734
lwrist -31.6658
lhand -31.4832 86.1788
lfingers 7.12502
lthumb -4.74972 603.894
rfemur -29.8867 -4.47667 1.85633
rtibia 31.2956
rfoot -24.4356 -20.9339
rtoes -20.0683
lfemur -29.02 13.5201 -8.94122
ltibia 31.3779
lfoot -19.202 7.48122
ltoes -28.359
197
root 6.91055 16.9644 1.2311 219.315 1.79446 178.841
lowerback 19.4358 -0.663617 -2.45743
upperback 8.20206 0.0286312 -1.36868
thorax -2.01402 0.532689 -0.0807633
lowerneck -15.5374 -3.5773 -2.18835
upperneck -9.85342 -2.83652 5.84862
head -0.405863 -0.637223 2.1113
rclavicle 5.36719e-015 5.96354e-016
rhumerus -14.62 29.9914 -86.6259
rradius 80.2449
rwrist 24.5883
rhand -62.8388 63.6648
rfingers 7.12502
rthumb -34.85 37.0738
lclavicle 5.36719e-015 5.96354e-016
lhumerus -17.8322 -28.2229 83.3843
lradius 82.8329
lwrist -31.3889
lhand -31.6667 86.4322
lfingers 7.12502
lthumb -4.9269 603.645
rfemur -30.1026 -3.64513 2.15516
rtibia 31.7195
rfoot -24.9139 -20.3462
rtoes -17.7475
lfemur -29.0732 14.2778 -8.55195
ltibia 31.7631
lfoot -19.1593 7.13716
ltoes -25.8763
198
root 6.91088 16.9433 1.21501 219.309 2.03433 178.784
lowerback 19.4663 -0.600504 -2.73829
upperback 8.42223 0.11721 -1.38525
thorax -1.78993 0.586047 0.0441822
lowerneck -16.1717 -3.55455 -2.19704
upperneck -9.58479 -2.78658 5.84155
head -0.219345 -0.590614 2.10936
rclavicle 1.45113e-014 1.56046e-014
rhumerus -14.33 30.0877 -86.3758
rradius 80.2124
rwrist 24.5277
rhand -62.8944 64.469
rfingers 7.12502
rthumb -34.9028 37.8903
lclavicle 1.45113e-014 1.56046e-014
lhumerus -17.6453 -28.3441 83.2701
lradius 82.7465
lwrist -31.0993
lhand -31.8941 86.799
lfingers 7.12502
lthumb -5.14648 603.284
rfemur -30.376 -3.61922 1.97913
rtibia 32.0536
rfoot -23.4069 -21.1048
rtoes -21.2362
lfemur -29.2828 14.6405 -8.73377
ltibia 32.3535
lfoot -19.1026 6.77703
ltoes -23.7549
199
root 6.90842 16.9375 1.18169 219.2 2.44494 178.283
lowerback 19.4573 -0.591886 -3.40719
upperback 8.70425 0.0897995 -1.60305
thorax -1.46924 0.583551 0.200075
lowerneck -16.8583 -3.50825 -1.90375
upperneck -9.4972 -2.71683 5.78166
head -0.0920458 -0.529684 2.03834
rclavicle 1.53064e-014 2.31584e-014
rhumerus -13.8499 30.0854 -86.294
rradius 80.0593
rwrist 24.5403
rhand -62.7762 64.7956
rfingers 7.12502
rthumb -34.7906 38.1909
lclavicle 1.53064e-014 2.31584e-014
lhumerus -17.0273 -28.7932 82.2614
lradius 82.6481
lwrist -30.2902
lhand -32.076 87.0114
lfingers 7.12502
lthumb -5.32212 603.075
rfemur -30.4147 -3.94235 1.26525
rtibia 32.4366
rfoot -22.8202 -20.8394
rtoes -22.9735
lfemur -29.3966 14.5864 -9.38875
ltibia 33.0516
lfoot -18.81 6.61863
ltoes -24.3112
200
root 6.90453 16.9433 1.14245 218.911 2.59642 177.946
lowerback 19.6521 -0.650241 -3.7748
upperback 8.84079 -0.00913008 -1.69073
thorax -1.41046 0.543719 0.334191
lowerneck -16.8939 -3.45757 -1.84594
upperneck -9.5585 -2.64727 5.70741
head -0.112143 -0.493072 2.00708
rclavicle 1.2921e-014 1.8487e-014
rhumerus -13.8138 30.2672 -86.3793
rradius 79.8836
rwrist 24.5245
rhand -62.7843 65.179
rfingers 7.12502
rthumb -34.7983 38.576
lclavicle 1.2921e-014 1.8487e-014
lhumerus -17.2677 -28.7795 82.8438
lradius 82.2751
lwrist -30.609
lhand -32.3285 87.732
lfingers 7.12502
lthumb -5.56591 602.361
rfemur -30.2474 -4.20085 0.863738
rtibia 32.8793
rfoot -22.4885 -20.654
rtoes -24.0324
lfemur -29.3758 14.5615 -9.70815
ltibia 33.8292
lfoot -18.3403 7.53974
ltoes -26.1277
201
root 6.89541 16.954 1.10519 218.238 2.01939 177.829
lowerback 20.4243 -0.891551 -3.28941
upperback 8.98299 -0.192497 -1.64713
thorax -1.65162 0.495754 0.138722
lowerneck -16.6338 -3.44865 -1.83901
upperneck -9.60638 -2.65402 5.7147
head -0.168824 -0.508786 2.00862
rclavicle -1.98785e-015 -8.15017e-015
rhumerus -13.9542 30.3273 -86.4854
rradius 79.6403
rwrist 24.4159
rhand -63.0016 67.3896
rfingers 7.12502
rthumb -35.0044 40.8346
lclavicle -1.98785e-015 -8.15017e-015
lhumerus -17.1363 -29.2449 82.6776
lradius 82.0118
lwrist -30.2154
lhand -32.7364 88.6191
lfingers 7.12502
lthumb -5.95969 601.485
rfemur -29.5461 -4.53706 1.09427
rtibia 33.4686
rfoot -22.3341 -20.5846
rtoes -25.1236
lfemur -29.1075 14.4841 -9.34355
ltibia 34.5835
lfoot -17.3483 4.48461
ltoes -18.124
202
root 6.88896 16.9649 1.08312 218.508 2.09522 178.181
lowerback 20.1973 -0.903192 -3.13363
upperback 8.89232 -0.213177 -1.58808
thorax -1.63833 0.472356 0.118613
lowerneck -16.329 -3.31725 -1.94525
upperneck -9.71474 -2.46913 5.83895
head -0.255009 -0.42411 2.0794
rclavicle -1.98785e-016 5.56597e-015
rhumerus -13.9306 30.8316 -86.6502
rradius 79.2968
rwrist 24.326
rhand -63.3411 68.6411
rfingers 7.12502
rthumb -35.3264 42.1619
lclavicle -1.98785e-016 5.56597e-015
lhumerus -17.3216 -28.8646 82.6806
lradius 81.9323
lwrist -30.4936
lhand -32.7711 88.3239
lfingers 7.12502
lthumb -5.99321 601.781
rfemur -30.2533 -4.50572 1.34488
rtibia 34.1623
rfoot -22.0813 -20.0109
rtoes -24.4297
lfemur -29.8114 15.1188 -9.15755
ltibia 35.4248
lfoot -16.8459 4.40142
ltoes -21.0596
203
root 6.87506 16.9759 1.06809 218.591 1.88748 178.065
lowerback 20.2505 -1.1635 -3.00283
upperback 8.84056 -0.545912 -1.54329
thorax -1.7165 0.306499 0.161321
lowerneck -16.1824 -3.16363 -2.03024
upperneck -9.85002 -2.24408 5.81786
head -0.330314 -0.312585 2.09946
rclavicle 5.56597e-015 5.96354e-015
rhumerus -13.8423 31.4974 -86.7385
rradius 78.9656
rwrist 24.1306
rhand -63.4865 69.4748
rfingers 7.12502
rthumb -35.4643 43.0284
lclavicle 5.56597e-015 5.96354e-015
lhumerus -17.3532 -28.7966 81.8955
lradius 82.2231
lwrist -29.5538
lhand -32.9497 88.1749
lfingers 7.12502
lthumb -6.16565 601.935
rfemur -30.6635 -4.97414 1.33364
rtibia 34.9797
rfoot -21.2518 -19.5546
rtoes -22.4117
lfemur -30.5576 15.1259 -9.1947
ltibia 36.2917
lfoot -15.7891 3.40303
ltoes -20.5544
204
root 6.87981 16.99 1.05424 218.566 2.00414 178.301
lowerback 20.2872 -1.09076 -3.0517
upperback 8.87284 -0.453193 -1.49329
thorax -1.70063 0.351405 0.222693
lowerneck -16.2935 -3.12544 -1.97127
upperneck -9.77525 -2.20625 5.77642
head -0.291624 -0.294347 2.0767
rclavicle -3.06128e-014 -3.33958e-014
rhumerus -13.7169 31.7628 -86.53
rradius 78.9219
rwrist 23.668
rhand -63.3881 71.4675
rfingers 7.12502
rthumb -35.371 44.9989
lclavicle -3.06128e-014 -3.33958e-014
lhumerus -17.341 -29.2053 81.6194
lradius 82.2594
lwrist -28.325
lhand -33.8006 88.9258
lfingers 7.12502
lthumb -6.9871 601.209
rfemur -31.2608 -4.8825 1.41518
rtibia 36.0043
rfoot -20.413 -18.8688
rtoes -20.6344
lfemur -31.0423 15.6259 -9.03614
ltibia 37.1672
lfoot -15.5918 2.73837
ltoes -22.3976
205
root 6.87528 17.0014 1.03617 218.474 2.25753 178.249
lowerback 20.231 -1.00775 -3.21303
upperback 8.96592 -0.348533 -1.58611
thorax -1.57054 0.407365 0.194217
lowerneck -16.4669 -3.15999 -2.0717
upperneck -9.56145 -2.24717 6.01494
head -0.185841 -0.308994 2.17187
rclavicle 3.97569e-015 7.15625e-015
rhumerus -13.5819 31.8332 -86.2671
rradius 79.012
rwrist 23.2097
rhand -63.6553 71.331
rfingers 7.12502
rthumb -35.6243 44.923
lclavicle 3.97569e-015 7.15625e-015
lhumerus -17.2781 -29.4196 81.8442
lradius 81.9732
lwrist -27.9627
lhand -34.3945 89.3755
lfingers 7.12502
lthumb -7.56032 600.78
rfemur -31.833 -4.89528 1.06665
rtibia 37.0878
rfoot -20.1705 -17.6919
rtoes -19.7191
lfemur -31.4282 15.9295 -9.19803
ltibia 37.9881
lfoot -15.6156 1.80881
ltoes -23.017
206
root 6.8707 17.0091 1.03464 218.564 2.17857 178.023
lowerback 20.1898 -1.05172 -3.22226
upperback 8.94461 -0.411609 -1.60986
thorax -1.57115 0.375119 0.187387
lowerneck -16.4876 -3.22086 -2.32669
upperneck -9.4877 -2.28784 6.30979
head -0.145705 -0.318992 2.31472
rclavicle 5.1684e-015 7.95139e-015
rhumerus -13.5424 31.9459 -86.085
rradius 78.9813
rwrist 22.8448
rhand -63.3567 67.5635
rfingers 7.12502
rthumb -35.3412 41.0878
lclavicle 5.1684e-015 7.95139e-015
lhumerus -17.4357 -29.2282 82.7064
lradius 81.5648
lwrist -28.7937
lhand -34.4431 89.2441
lfingers 7.12502
lthumb -7.60731 600.913
rfemur -32.5888 -5.27306 0.798257
rtibia 38.2032
rfoot -20.1496 -16.3924
rtoes -18.626
lfemur -32.2083 16.0148 -9.37489
ltibia 38.6814
lfoot -15.9721 0.468502
ltoes -22.4951
207
root 6.8644 17.012 1.03438 218.576 1.96307 177.936
lowerback 20.279 -1.14617 -3.02761
upperback 8.89398 -0.512349 -1.5742
thorax -1.67341 0.328152 0.135622
lowerneck -16.5029 -3.22519 -2.48912
upperneck -9.4093 -2.27677 6.39372
head -0.113061 -0.310642 2.37311
rclavicle 8.15017e-015 1.03368e-014
rhumerus -13.6138 32.1532 -85.9369
rradius 79.1093
rwrist 22.4495
rhand -62.5602 63.8337
rfingers 7.12502
rthumb -34.5856 37.1818
lclavicle 8.15017e-015 1.03368e-014
lhumerus -17.4622 -29.4908 82.724
lradius 81.5725
lwrist -28.6982
lhand -34.3093 89.0519
lfingers 7.12502
lthumb -7.47809 601.1
rfemur -33.2009 -5.62697 0.725387
rtibia 39.178
rfoot -20.1573 -15.1659
rtoes -18.7111
lfemur -32.9451 16.1233 -9.37941
ltibia 39.1856
lfoot -16.1662 0.308315
ltoes -25.1598
